HIERARCHY
ROOT hip
{
  OFFSET 0 0 0
  CHANNELS 6 Xposition Yposition Zposition Zrotation Yrotation Xrotation
  JOINT abdomen
  {
    OFFSET 0 20.6881 -0.73152
    CHANNELS 3 Zrotation Xrotation Yrotation
    JOINT chest
    {
      OFFSET 0 11.7043 -0.48768
      CHANNELS 3 Zrotation Xrotation Yrotation
      JOINT neck
      {
        OFFSET 0 22.1894 -2.19456
        CHANNELS 3 Zrotation Xrotation Yrotation
        JOINT head
        {
          OFFSET -0.24384 7.07133 1.2192
          CHANNELS 3 Zrotation Xrotation Yrotation
          JOINT leftEye
          {
            OFFSET 4.14528 8.04674 8.04672
            CHANNELS 3 Zrotation Xrotation Yrotation
            End Site
            {
              OFFSET 1 0 0
            }
          }
          JOINT rightEye
          {
            OFFSET -3.6576 8.04674 8.04672
            CHANNELS 3 Zrotation Xrotation Yrotation
            End Site
            {
              OFFSET 1 0 0
            }
          }
        }
      }
      JOINT rCollar
      {
        OFFSET -2.68224 19.2634 -4.8768
        CHANNELS 3 Zrotation Xrotation Yrotation
        JOINT rShldr
        {
          OFFSET -8.77824 -1.95073 1.46304
          CHANNELS 3 Zrotation Xrotation Yrotation
          JOINT rForeArm
          {
            OFFSET -28.1742 -1.7115 0.48768
            CHANNELS 3 Zrotation Xrotation Yrotation
            JOINT rHand
            {
              OFFSET -22.5879 0.773209 7.07136
              CHANNELS 3 Zrotation Xrotation Yrotation
              JOINT rThumb1
              {
                OFFSET -1.2192 -0.487915 3.41376
                CHANNELS 3 Zrotation Xrotation Yrotation
                JOINT rThumb2
                {
                  OFFSET -3.37035 -0.52449 3.41376
                  CHANNELS 3 Zrotation Xrotation Yrotation
                  End Site
                  {
                    OFFSET -1.78271 -1.18214 1.43049
                  }
                }
              }
              JOINT rIndex1
              {
                OFFSET -7.75947 0.938293 5.60832
                CHANNELS 3 Zrotation Xrotation Yrotation
                JOINT rIndex2
                {
                  OFFSET -2.54057 -0.884171 1.56538
                  CHANNELS 3 Zrotation Xrotation Yrotation
                  End Site
                  {
                    OFFSET -1.62519 -0.234802 1.16502
                  }
                }
              }
              JOINT rMid1
              {
                OFFSET -8.24714 1.18213 3.41376
                CHANNELS 3 Zrotation Xrotation Yrotation
                JOINT rMid2
                {
                  OFFSET -3.10165 -0.590103 1.0647
                  CHANNELS 3 Zrotation Xrotation Yrotation
                  End Site
                  {
                    OFFSET -2.48547 -0.328903 0.83742
                  }
                }
              }
              JOINT rRing1
              {
                OFFSET -8.82822 0.546677 1.51678
                CHANNELS 3 Zrotation Xrotation Yrotation
                JOINT rRing2
                {
                  OFFSET -2.60934 -0.819778 -0.0198488
                  CHANNELS 3 Zrotation Xrotation Yrotation
                  End Site
                  {
                    OFFSET -2.33842 -0.294052 0.168128
                  }
                }
              }
              JOINT rPinky1
              {
                OFFSET -8.27202 -0.0477905 -0.4584
                CHANNELS 3 Zrotation Xrotation Yrotation
                JOINT rPinky2
                {
                  OFFSET -1.82734 -0.647385 -0.700984
                  CHANNELS 3 Zrotation Xrotation Yrotation
                  End Site
                  {
                    OFFSET -1.69225 -0.51767 -0.607171
                  }
                }
              }
            }
          }
        }
      }
      JOINT lCollar
      {
        OFFSET 2.68224 19.2634 -4.8768
        CHANNELS 3 Zrotation Xrotation Yrotation
        JOINT lShldr
        {
          OFFSET 8.77824 -1.95073 1.46304
          CHANNELS 3 Zrotation Xrotation Yrotation
          JOINT lForeArm
          {
            OFFSET 28.1742 -1.7115 0.48768
            CHANNELS 3 Zrotation Xrotation Yrotation
            JOINT lHand
            {
              OFFSET 22.5879 0.773209 7.07136
              CHANNELS 3 Zrotation Xrotation Yrotation
              JOINT lThumb1
              {
                OFFSET 1.2192 -0.487915 3.41376
                CHANNELS 3 Zrotation Xrotation Yrotation
                JOINT lThumb2
                {
                  OFFSET 3.37035 -0.52449 3.41376
                  CHANNELS 3 Zrotation Xrotation Yrotation
                  End Site
                  {
                    OFFSET 1.78271 -1.18214 1.43049
                  }
                }
              }
              JOINT lIndex1
              {
                OFFSET 7.75947 0.938293 5.60832
                CHANNELS 3 Zrotation Xrotation Yrotation
                JOINT lIndex2
                {
                  OFFSET 2.54057 -0.884171 1.56538
                  CHANNELS 3 Zrotation Xrotation Yrotation
                  End Site
                  {
                    OFFSET 1.62519 -0.234802 1.16502
                  }
                }
              }
              JOINT lMid1
              {
                OFFSET 8.24714 1.18213 3.41376
                CHANNELS 3 Zrotation Xrotation Yrotation
                JOINT lMid2
                {
                  OFFSET 3.10165 -0.590103 1.0647
                  CHANNELS 3 Zrotation Xrotation Yrotation
                  End Site
                  {
                    OFFSET 2.48547 -0.328903 0.83742
                  }
                }
              }
              JOINT lRing1
              {
                OFFSET 8.82822 0.546677 1.51678
                CHANNELS 3 Zrotation Xrotation Yrotation
                JOINT lRing2
                {
                  OFFSET 2.60934 -0.819778 -0.0198488
                  CHANNELS 3 Zrotation Xrotation Yrotation
                  End Site
                  {
                    OFFSET 2.33842 -0.294052 0.168128
                  }
                }
              }
              JOINT lPinky1
              {
                OFFSET 8.27202 -0.0477905 -0.4584
                CHANNELS 3 Zrotation Xrotation Yrotation
                JOINT lPinky2
                {
                  OFFSET 1.82734 -0.647385 -0.700984
                  CHANNELS 3 Zrotation Xrotation Yrotation
                  End Site
                  {
                    OFFSET 1.69225 -0.51767 -0.607171
                  }
                }
              }
            }
          }
        }
      }
    }
  }
  JOINT rButtock
  {
    OFFSET -8.77824 4.35084 1.2192
    CHANNELS 3 Zrotation Xrotation Yrotation
    JOINT rThigh
    {
      OFFSET 0 -1.70687 -2.19456
      CHANNELS 3 Zrotation Xrotation Yrotation
      JOINT rShin
      {
        OFFSET 0 -36.8199 0.73152
        CHANNELS 3 Zrotation Xrotation Yrotation
        JOINT rFoot
        {
          OFFSET 0.73152 -45.1104 -5.12064
          CHANNELS 3 Zrotation Xrotation Yrotation
          End Site
          {
            OFFSET -1.1221 -3.69964 12.103
          }
        }
      }
    }
  }
  JOINT lButtock
  {
    OFFSET 8.77824 4.35084 1.2192
    CHANNELS 3 Zrotation Xrotation Yrotation
    JOINT lThigh
    {
      OFFSET 0 -1.70687 -2.19456
      CHANNELS 3 Zrotation Xrotation Yrotation
      JOINT lShin
      {
        OFFSET 0 -36.8199 0.73152
        CHANNELS 3 Zrotation Xrotation Yrotation
        JOINT lFoot
        {
          OFFSET -0.73152 -45.1104 -5.12064
          CHANNELS 3 Zrotation Xrotation Yrotation
          End Site
          {
            OFFSET 1.1221 -3.69964 12.103
          }
        }
      }
    }
  }
}
MOTION
Frames:	6
Frame Time:	0.00833333
-75.1185 73.2886 2.18929 118.286 80.6255 132.785 -17.1039 18.9607 1.45073 5.32984 -4.86513 0.00738778 -7.8292 -11.2229 -2.87757 5.04694 6.38111 -2.09301 -0.0 0.0 0.0 -0.0 0.0 0.0 2.6879e-13 1.87623e-12 -8.40859e-14 79.1515 36.9231 -15.5446 -22.7048 -16.8534 45.7395 -0.605989 -21.5557 -3.1826 -1.88656e-09 -9.07718e-10 1.38822e-09 -3.28184e-09 -1.55688e-09 2.3664e-09 -1.88655e-09 -9.07719e-10 1.38821e-09 7.73091 5.47488 0.417314 -1.88656e-09 -9.0772e-10 1.38822e-09 2.90554 0.965183 0.102902 -1.88656e-09 -9.07724e-10 1.38822e-09 10.2786 0.731801 0.0259123 -1.88656e-09 -9.07723e-10 1.38823e-09 2.22167 -0.733487 -0.20892 2.68741e-13 1.87623e-12 -8.43841e-14 -49.5449 39.3757 -14.5907 27.8207 -29.6331 -66.6637 0.643589 -22.1734 3.28356 -8.11421e-10 6.04427e-14 -1.71811e-09 -1.36796e-09 1.12274e-12 -2.98858e-09 -8.11422e-10 6.48038e-14 -1.7181e-09 -7.73091 5.47488 -0.417314 -8.11419e-10 6.63941e-14 -1.71811e-09 -2.90554 0.965183 -0.102902 -8.11425e-10 6.63941e-14 -1.71811e-09 -10.2786 0.731801 -0.0259123 -8.11416e-10 6.83819e-14 -1.71813e-09 -2.22167 -0.733487 0.20892 -2.03217e-16 0.0 -3.88251e-19 -49.9067 -53.576 -41.7362 -170.926 82.5218 171.589 -1.01167 -2.1301 -3.74537 2.03217e-16 0.0 3.88251e-19 4.94979 -11.5519 0.79212 0.32515 43.4273 -1.20045 3.2441 -20.4234 7.34312
-70.1924 74.2204 2.86499 115.798 82.0674 129.513 -15.3227 17.8612 -0.760335 4.87035 -4.34091 -0.532491 -6.72384 -11.5565 -1.91493 3.67382 7.26115 -0.60258 -0.0 0.0 0.0 -0.0 0.0 0.0 2.36603e-13 1.40877e-12 -7.26469e-14 79.0018 35.8266 -17.5721 -22.614 -16.7066 45.4898 -0.675249 -22.6638 -3.36454 -1.56861e-09 -6.90356e-10 1.33266e-09 -2.72973e-09 -1.18415e-09 2.27699e-09 -1.5686e-09 -6.90358e-10 1.33265e-09 7.73091 5.47488 0.417314 -1.56861e-09 -6.90355e-10 1.33265e-09 2.90554 0.965183 0.102902 -1.56861e-09 -6.90361e-10 1.33266e-09 10.2786 0.731801 0.0259123 -1.56861e-09 -6.90357e-10 1.33266e-09 2.22167 -0.733487 -0.20892 2.36514e-13 1.40877e-12 -7.29648e-14 -48.2096 39.6389 -15.4953 28.0473 -30.8658 -68.6897 0.651469 -22.298 3.30409 -5.52238e-10 -6.3599e-10 -8.94499e-10 -9.34253e-10 -1.10445e-09 -1.56149e-09 -5.5224e-10 -6.35985e-10 -8.94491e-10 -7.73091 5.47488 -0.417314 -5.52236e-10 -6.35984e-10 -8.94501e-10 -2.90554 0.965183 -0.102902 -5.52242e-10 -6.35984e-10 -8.94502e-10 -10.2786 0.731801 -0.0259123 -5.52233e-10 -6.35982e-10 -8.94513e-10 -2.22167 -0.733487 0.20892 -2.03217e-16 0.0 -3.88251e-19 -50.5599 -56.2607 -43.3028 -151.165 87.7538 151.793 -1.23504 -3.77653 -4.37798 2.03217e-16 0.0 3.88251e-19 5.49143 -5.49801 -0.531012 0.187769 37.5104 -1.0959 3.10443 -15.081 8.94536
-65.6251 75.245 3.50937 118.553 82.4692 132.664 -13.0585 16.3133 -3.09615 4.05053 -3.49581 -1.09852 -5.36313 -11.9844 -0.816363 2.12583 8.22932 1.06509 -0.0 0.0 0.0 -0.0 0.0 0.0 1.68625e-13 5.32183e-13 -4.50837e-14 78.6853 34.7857 -19.1878 -22.5587 -16.6186 45.3337 -0.742328 -23.7003 -3.53686 -1.09558e-09 -2.75873e-10 8.10238e-10 -1.90131e-09 -4.74151e-10 1.38531e-09 -1.09558e-09 -2.75875e-10 8.10228e-10 7.73091 5.47488 0.417314 -1.09558e-09 -2.75867e-10 8.10235e-10 2.90554 0.965183 0.102902 -1.09558e-09 -2.75877e-10 8.10237e-10 10.2786 0.731801 0.0259123 -1.09559e-09 -2.75867e-10 8.10245e-10 2.22167 -0.733487 -0.20892 1.68475e-13 5.32184e-13 -4.54099e-14 -46.4325 40.1589 -16.0855 28.2348 -32.1095 -70.5863 0.656847 -22.3828 3.31806 -1.17259e-10 -1.19122e-09 1.00643e-09 -2.16006e-10 -2.07156e-09 1.73052e-09 -1.17261e-10 -1.19122e-09 1.00644e-09 -7.73091 5.47488 -0.417314 -1.17256e-10 -1.19122e-09 1.00643e-09 -2.90554 0.965183 -0.102902 -1.17263e-10 -1.19122e-09 1.00643e-09 -10.2786 0.731801 -0.0259123 -1.17255e-10 -1.19122e-09 1.00642e-09 -2.22167 -0.733487 0.20892 -2.03217e-16 0.0 -3.88251e-19 -49.0424 -58.0593 -43.1412 -9.67332 84.3033 10.2764 -1.68631 -5.65415 -5.79389 2.03217e-16 0.0 3.88251e-19 6.47306 0.768319 -2.11554 0.0838422 30.6658 -0.993058 2.35956 -7.8552 10.8511
-60.7431 76.3821 4.21109 117.844 83.2096 132.035 -10.8552 14.6466 -5.33109 3.23488 -2.54141 -1.64484 -3.9594 -12.3866 0.30538 0.418772 9.15144 2.78755 -0.0 0.0 0.0 -0.0 0.0 0.0 8.88273e-14 -3.3389e-13 -1.7752e-14 78.0349 33.8879 -20.3009 -22.5223 -16.5617 45.2276 -0.798603 -24.5244 -3.676 -6.00033e-10 1.91024e-10 1.56197e-10 -1.03205e-09 3.26088e-10 2.6662e-10 -6.00029e-10 1.91022e-10 1.56189e-10 7.73091 5.47488 0.417314 -6.00033e-10 1.91035e-10 1.56195e-10 2.90554 0.965183 0.102902 -6.00029e-10 1.91022e-10 1.56197e-10 10.2786 0.731801 0.0259123 -6.00035e-10 1.91038e-10 1.56206e-10 2.22167 -0.733487 -0.20892 8.86249e-14 -3.33886e-13 -1.80723e-14 -44.8018 40.8713 -16.401 28.3431 -33.1509 -72.214 0.657903 -22.4001 3.32091 3.31488e-10 -1.60959e-09 3.02897e-09 5.23654e-10 -2.80163e-09 5.23318e-09 3.31484e-10 -1.60958e-09 3.02898e-09 -7.73091 5.47488 -0.417314 3.31491e-10 -1.60958e-09 3.02897e-09 -2.90554 0.965183 -0.102902 3.31483e-10 -1.60958e-09 3.02897e-09 -10.2786 0.731801 -0.0259123 3.31492e-10 -1.60958e-09 3.02896e-09 -2.22167 -0.733487 0.20892 -2.03217e-16 0.0 -3.88251e-19 -46.562 -59.2253 -42.0275 -3.3482 76.0092 3.91458 -2.18919 -7.1061 -7.29085 2.03217e-16 0.0 3.88251e-19 7.56961 6.57026 -3.69899 0.0205567 24.2805 -0.905689 1.14395 -0.71317 12.9794
-55.9099 77.5587 4.93035 115.907 83.8208 130.445 -9.1792 13.1963 -7.26066 2.77693 -1.68921 -2.12617 -2.73732 -12.6444 1.33498 -1.40783 9.8957 4.43865 -0.0 0.0 0.0 -0.0 0.0 0.0 2.11781e-14 -7.69797e-13 -7.00716e-15 76.8903 33.2163 -20.8216 -22.4875 -16.5071 45.1281 -0.833009 -24.9957 -3.75685 -2.14497e-10 5.65628e-10 -2.9423e-10 -3.57423e-10 9.6956e-10 -5.03786e-10 -2.14493e-10 5.65626e-10 -2.94236e-10 7.73091 5.47488 0.417314 -2.14497e-10 5.6564e-10 -2.9423e-10 2.90554 0.965183 0.102902 -2.14491e-10 5.65628e-10 -2.94229e-10 10.2786 0.731801 0.0259123 -2.14499e-10 5.65646e-10 -2.9422e-10 2.22167 -0.733487 -0.20892 2.09656e-14 -7.69792e-13 -7.30534e-15 -43.9132 41.7097 -16.476 28.3723 -33.7953 -73.365 0.652871 -22.3226 3.30808 6.31973e-10 -1.83502e-09 4.21738e-09 1.0216e-09 -3.19609e-09 7.29222e-09 6.31969e-10 -1.83502e-09 4.2174e-09 -7.73091 5.47488 -0.417314 6.31976e-10 -1.83502e-09 4.21739e-09 -2.90554 0.965183 -0.102902 6.31968e-10 -1.83502e-09 4.21739e-09 -10.2786 0.731801 -0.0259123 6.31977e-10 -1.83502e-09 4.21738e-09 -2.22167 -0.733487 0.20892 -2.03217e-16 0.0 -3.88251e-19 -44.6033 -59.9948 -41.0295 -1.8032 68.3018 2.29968 -2.43045 -7.4957 -8.14563 2.03217e-16 0.0 3.88251e-19 8.26878 11.2406 -4.99289 -0.00877167 19.7418 -0.831493 -0.066184 4.43781 15.1317
-51.1105 78.7486 5.4785 108.46 83.9557 123.703 -8.21682 11.8064 -8.93592 2.8799 -0.914067 -2.56478 -1.7455 -12.743 2.27598 -3.42219 10.4546 6.05754 -0.0 0.0 0.0 -0.0 0.0 0.0 -3.46341e-14 -5.11535e-13 -3.03197e-14 74.9895 32.8558 -20.5908 -22.4374 -16.428 44.9904 -0.828622 -24.9279 -3.74545 5.8383e-11 7.45207e-10 -3.90643e-10 1.14463e-10 1.27958e-09 -6.67082e-10 5.83868e-11 7.45204e-10 -3.90649e-10 7.73091 5.47488 0.417314 5.83814e-11 7.45216e-10 -3.9064e-10 2.90554 0.965183 0.102902 5.83881e-11 7.45207e-10 -3.90642e-10 10.2786 0.731801 0.0259123 5.83816e-11 7.45223e-10 -3.90633e-10 2.22167 -0.733487 -0.20892 -3.47875e-14 -5.11534e-13 -3.05639e-14 -44.0595 42.7338 -16.1746 28.3528 -34.0597 -74.0557 0.638894 -22.1018 3.27171 7.26538e-10 -1.76464e-09 4.1476e-09 1.18561e-09 -3.07617e-09 7.17399e-09 7.26534e-10 -1.76464e-09 4.14761e-09 -7.73091 5.47488 -0.417314 7.26541e-10 -1.76464e-09 4.1476e-09 -2.90554 0.965183 -0.102902 7.26532e-10 -1.76464e-09 4.1476e-09 -10.2786 0.731801 -0.0259123 7.26541e-10 -1.76464e-09 4.14759e-09 -2.22167 -0.733487 0.20892 -2.03217e-16 0.0 -3.88251e-19 -43.7183 -60.2941 -40.4292 -1.05999 60.6571 1.44022 -2.19275 -6.21252 -8.10357 2.03217e-16 0.0 3.88251e-19 8.0072 14.7326 -6.08377 -0.0127152 16.8892 -0.735048 -0.850142 6.99763 17.526
